{
	"asset":{
		"generator":"Khronos glTF Blender I/O v4.3.47",
		"version":"2.0"
	},
	"extensionsUsed":[
		"KHR_materials_emissive_strength"
	],
	"scene":0,
	"scenes":[
		{
			"name":"Scene",
			"nodes":[
				0,
				1,
				2,
				3
			]
		}
	],
	"nodes":[
		{
			"mesh":0,
			"name":"Layer 1_curve_.002",
			"scale":[
				0.01898838020861149,
				0.01898838020861149,
				0.01898838020861149
			]
		},
		{
			"mesh":1,
			"name":"Layer 1_curve_.001",
			"scale":[
				0.01658942922949791,
				0.01658942922949791,
				0.01658942922949791
			],
			"translation":[
				-0.3296549618244171,
				0.3589021563529968,
				-0.1529712975025177
			]
		},
		{
			"mesh":2,
			"name":"Plane",
			"scale":[
				6.758834362030029,
				6.758834362030029,
				6.758834362030029
			],
			"translation":[
				-0.3649197518825531,
				0,
				-0.05581125244498253
			]
		},
		{
			"mesh":3,
			"name":"Text",
			"rotation":[
				0,
				0,
				1,
				1.6292068494294654e-07
			],
			"scale":[
				3.421330213546753,
				11.109740257263184,
				3.421330213546753
			],
			"translation":[
				4.605854034423828,
				-1.2060376405715942,
				-3.442920207977295
			]
		}
	],
	"animations":[
		{
			"channels":[
				{
					"sampler":0,
					"target":{
						"node":1,
						"path":"rotation"
					}
				}
			],
			"name":"Layer 1_curve_.001Action.001",
			"samplers":[
				{
					"input":15,
					"interpolation":"LINEAR",
					"output":16
				}
			]
		},
		{
			"channels":[
				{
					"sampler":0,
					"target":{
						"node":2,
						"path":"translation"
					}
				},
				{
					"sampler":1,
					"target":{
						"node":2,
						"path":"rotation"
					}
				},
				{
					"sampler":2,
					"target":{
						"node":2,
						"path":"scale"
					}
				}
			],
			"name":"PlaneAction",
			"samplers":[
				{
					"input":17,
					"interpolation":"LINEAR",
					"output":18
				},
				{
					"input":17,
					"interpolation":"LINEAR",
					"output":19
				},
				{
					"input":17,
					"interpolation":"LINEAR",
					"output":20
				}
			]
		}
	],
	"materials":[
		{
			"doubleSided":true,
			"name":"Material",
			"pbrMetallicRoughness":{
				"baseColorFactor":[
					0,
					0,
					0,
					1
				],
				"roughnessFactor":0
			}
		},
		{
			"doubleSided":true,
			"name":"Material.001",
			"pbrMetallicRoughness":{
				"baseColorFactor":[
					0.6838931441307068,
					0.5560840368270874,
					0,
					1
				],
				"metallicFactor":0
			}
		},
		{
			"doubleSided":true,
			"name":"Material.002",
			"pbrMetallicRoughness":{
				"baseColorFactor":[
					0.7572730779647827,
					0.8061600923538208,
					0.36902356147766113,
					1
				],
				"metallicFactor":0,
				"roughnessFactor":0.5
			}
		},
		{
			"doubleSided":true,
			"emissiveFactor":[
				1,
				0.945397138595581,
				0.945397138595581
			],
			"extensions":{
				"KHR_materials_emissive_strength":{
					"emissiveStrength":6.799999713897705
				}
			},
			"name":"Material.003",
			"pbrMetallicRoughness":{
				"baseColorFactor":[
					0.800315260887146,
					0.7393407225608826,
					0,
					1
				],
				"metallicFactor":0,
				"roughnessFactor":0.5
			}
		}
	],
	"meshes":[
		{
			"name":"Layer 1_curve_.002",
			"primitives":[
				{
					"attributes":{
						"POSITION":0,
						"NORMAL":1,
						"TEXCOORD_0":2
					},
					"indices":3,
					"material":0
				}
			]
		},
		{
			"name":"Layer 1_curve_.001",
			"primitives":[
				{
					"attributes":{
						"POSITION":4,
						"NORMAL":5,
						"TEXCOORD_0":6
					},
					"indices":7,
					"material":1
				}
			]
		},
		{
			"name":"Plane",
			"primitives":[
				{
					"attributes":{
						"POSITION":8,
						"NORMAL":9,
						"TEXCOORD_0":10
					},
					"indices":11,
					"material":2
				}
			]
		},
		{
			"name":"Text.001",
			"primitives":[
				{
					"attributes":{
						"POSITION":12,
						"NORMAL":13
					},
					"indices":14,
					"material":3
				}
			]
		}
	],
	"accessors":[
		{
			"bufferView":0,
			"componentType":5126,
			"count":96196,
			"max":[
				323.5716247558594,
				26.593664169311523,
				331.72601318359375
			],
			"min":[
				-359.2591552734375,
				-3.149676561355591,
				-351.17462158203125
			],
			"type":"VEC3"
		},
		{
			"bufferView":1,
			"componentType":5126,
			"count":96196,
			"type":"VEC3"
		},
		{
			"bufferView":2,
			"componentType":5126,
			"count":96196,
			"type":"VEC2"
		},
		{
			"bufferView":3,
			"componentType":5125,
			"count":182352,
			"type":"SCALAR"
		},
		{
			"bufferView":4,
			"componentType":5126,
			"count":1444,
			"max":[
				102.56513214111328,
				38.370262145996094,
				104.71788024902344
			],
			"min":[
				-102.68404388427734,
				-38.166969299316406,
				-99.57621765136719
			],
			"type":"VEC3"
		},
		{
			"bufferView":5,
			"componentType":5126,
			"count":1444,
			"type":"VEC3"
		},
		{
			"bufferView":6,
			"componentType":5126,
			"count":1444,
			"type":"VEC2"
		},
		{
			"bufferView":7,
			"componentType":5123,
			"count":4056,
			"type":"SCALAR"
		},
		{
			"bufferView":8,
			"componentType":5126,
			"count":288,
			"max":[
				1,
				0,
				1
			],
			"min":[
				-1,
				-0.10999999940395355,
				-1
			],
			"type":"VEC3"
		},
		{
			"bufferView":9,
			"componentType":5126,
			"count":288,
			"type":"VEC3"
		},
		{
			"bufferView":10,
			"componentType":5126,
			"count":288,
			"type":"VEC2"
		},
		{
			"bufferView":11,
			"componentType":5123,
			"count":864,
			"type":"SCALAR"
		},
		{
			"bufferView":12,
			"componentType":5126,
			"count":980,
			"max":[
				2.8974761962890625,
				-1.0728836059570312e-06,
				0.018772363662719727
			],
			"min":[
				0.03841125965118408,
				-0.056202054023742676,
				-0.6207854747772217
			],
			"type":"VEC3"
		},
		{
			"bufferView":13,
			"componentType":5126,
			"count":980,
			"type":"VEC3"
		},
		{
			"bufferView":14,
			"componentType":5123,
			"count":5868,
			"type":"SCALAR"
		},
		{
			"bufferView":15,
			"componentType":5126,
			"count":361,
			"max":[
				15
			],
			"min":[
				0
			],
			"type":"SCALAR"
		},
		{
			"bufferView":16,
			"componentType":5126,
			"count":361,
			"type":"VEC4"
		},
		{
			"bufferView":17,
			"componentType":5126,
			"count":1,
			"max":[
				0.2916666666666667
			],
			"min":[
				0.2916666666666667
			],
			"type":"SCALAR"
		},
		{
			"bufferView":18,
			"componentType":5126,
			"count":1,
			"type":"VEC3"
		},
		{
			"bufferView":19,
			"componentType":5126,
			"count":1,
			"type":"VEC4"
		},
		{
			"bufferView":20,
			"componentType":5126,
			"count":1,
			"type":"VEC3"
		}
	],
	"bufferViews":[
		{
			"buffer":0,
			"byteLength":1154352,
			"byteOffset":0,
			"target":34962
		},
		{
			"buffer":0,
			"byteLength":1154352,
			"byteOffset":1154352,
			"target":34962
		},
		{
			"buffer":0,
			"byteLength":769568,
			"byteOffset":2308704,
			"target":34962
		},
		{
			"buffer":0,
			"byteLength":729408,
			"byteOffset":3078272,
			"target":34963
		},
		{
			"buffer":0,
			"byteLength":17328,
			"byteOffset":3807680,
			"target":34962
		},
		{
			"buffer":0,
			"byteLength":17328,
			"byteOffset":3825008,
			"target":34962
		},
		{
			"buffer":0,
			"byteLength":11552,
			"byteOffset":3842336,
			"target":34962
		},
		{
			"buffer":0,
			"byteLength":8112,
			"byteOffset":3853888,
			"target":34963
		},
		{
			"buffer":0,
			"byteLength":3456,
			"byteOffset":3862000,
			"target":34962
		},
		{
			"buffer":0,
			"byteLength":3456,
			"byteOffset":3865456,
			"target":34962
		},
		{
			"buffer":0,
			"byteLength":2304,
			"byteOffset":3868912,
			"target":34962
		},
		{
			"buffer":0,
			"byteLength":1728,
			"byteOffset":3871216,
			"target":34963
		},
		{
			"buffer":0,
			"byteLength":11760,
			"byteOffset":3872944,
			"target":34962
		},
		{
			"buffer":0,
			"byteLength":11760,
			"byteOffset":3884704,
			"target":34962
		},
		{
			"buffer":0,
			"byteLength":11736,
			"byteOffset":3896464,
			"target":34963
		},
		{
			"buffer":0,
			"byteLength":1444,
			"byteOffset":3908200
		},
		{
			"buffer":0,
			"byteLength":5776,
			"byteOffset":3909644
		},
		{
			"buffer":0,
			"byteLength":4,
			"byteOffset":3915420
		},
		{
			"buffer":0,
			"byteLength":12,
			"byteOffset":3915424
		},
		{
			"buffer":0,
			"byteLength":16,
			"byteOffset":3915436
		},
		{
			"buffer":0,
			"byteLength":12,
			"byteOffset":3915452
		}
	],
	"buffers":[
		{
			"byteLength":3915464,
			"uri":"ANIMATEDQR.bin"
		}
	]
}
